<?xml version="1.0" encoding="utf-8"?>
<!-- Generator: Adobe Illustrator 23.0.2, SVG Export Plug-In . SVG Version: 6.00 Build 0)  -->
<svg version="1.1" id="Layer_1" xmlns="http://www.w3.org/2000/svg" xmlns:xlink="http://www.w3.org/1999/xlink" x="0px" y="0px"
	 viewBox="0 0 71 24.6" style="enable-background:new 0 0 71 24.6;" xml:space="preserve">
<style type="text/css">
	.st0{fill:#FFFFFF;}
	.st1{enable-background:new    ;}
</style>
<g>
	<path class="st0" d="M27,11.5l-9.9-9.8c-0.4-0.4-1.1-0.4-1.5,0l-9.8,9.8c-0.4,0.4-0.4,1.1,0,1.5l9.8,9.8c0.4,0.4,1.1,0.4,1.5,0
		l9.8-9.8C27.5,12.6,27.5,12,27,11.5z M10.7,15.1l-2-2c-0.4-0.4-0.4-1.1,0-1.5l2-2c0.4-0.4,1.1-0.4,1.5,0l2,2c0.4,0.4,0.4,1.1,0,1.5
		l-2,2C11.8,15.5,11.1,15.5,10.7,15.1z M19.2,18.4l-2,2c-0.4,0.4-1.1,0.4-1.5,0l-2-2c-0.4-0.4-0.4-1.1,0-1.5l2-2
		c0.4-0.4,1.1-0.4,1.5,0l2,2C19.6,17.3,19.6,17.9,19.2,18.4z M24.4,13.1l-2,2c-0.4,0.4-1.1,0.4-1.5,0l-2-2c-0.4-0.4-0.4-1.1,0-1.5
		l2-2c0.4-0.4,1.1-0.4,1.5,0l2,2C24.8,12,24.8,12.7,24.4,13.1z"/>
	<g transform="matrix(0.426395,0,0,0.426395,-44.958,-77.1888)">
		<g class="st1">
			<path class="st0" d="M191.8,218.1l-1.4,4.2h-3.7l6.9-19.3h3.7l6.9,19.3h-3.9l-4.8-14.3l-0.2-1l-0.2,1l-2.3,6.9l-0.3,0.5l0.4-0.1
				h2c0.4,0,0.7,0.1,1,0.3c0.3,0.2,0.5,0.4,0.7,0.7c0.2,0.3,0.4,0.6,0.5,0.9c0.1,0.3,0.3,0.6,0.4,0.9H191.8z"/>
			<path class="st0" d="M208.8,203h4.8l4.2,14.9l0.2,1l0.2-1l4.2-14.9h4.8l1.8,19.3h-3.5l-1-14.5l-0.1-1.3l-0.3,1.3l-4.2,14.3h-3.9
				l-4.2-14.3l-0.3-1.2l-0.1,1.2l-1,14.5H207L208.8,203z"/>
			<path class="st0" d="M233.2,203h3.8v16.5h6.9v2.7h-10.8V203z"/>
			<path class="st0" d="M245.2,205.8V203h13.8v2.7h-5v16.5h-3.8v-16.5H245.2z"/>
		</g>
	</g>
</g>
</svg>
