<?xml version="1.0" encoding="utf-8"?>
<!-- Generator: Adobe Illustrator 23.0.2, SVG Export Plug-In . SVG Version: 6.00 Build 0)  -->
<svg version="1.1" id="Layer_1" xmlns="http://www.w3.org/2000/svg" xmlns:xlink="http://www.w3.org/1999/xlink" x="0px" y="0px"
	 viewBox="0 0 247.4 105.3" style="enable-background:new 0 0 247.4 105.3;" xml:space="preserve">
<style type="text/css">
	.st0{fill:#FFFFFF;}
</style>
<g>
	<path class="st0" d="M62,24.3H36.5l-2.1,11.8l23,0c11.3,0,14.6,4.1,14.6,10.9c0,3.5-1.6,9.4-2.2,11.3C68,63.4,64.4,69.2,51,69.2
		l-22.3,0L26.5,81l25.4,0c9,0,12.8-1,16.8-2.9c8.9-4.1,14.3-13,16.4-24.5C88.3,36.5,84.3,24.3,62,24.3z"/>
	<path class="st0" d="M140.6,81l1.8-10.2h21.7c1.7,0,2.9-1,3.2-2.7c0.3-1.7-0.5-2.7-2.2-2.7h-10.4c-8.2,0-12.1-4.8-10.7-13
		c1.5-8.2,7.1-13,15.3-13h23.6l-1.9,10.2h-20.8c-1.7,0-2.9,1-3.2,2.7c-0.3,1.7,0.5,2.7,2.2,2.7h10.4c8.2,0,12.1,4.8,10.7,13
		c-1.5,8.2-7,13-15.2,13H140.6z"/>
	<path class="st0" d="M107.5,81C94,81,88,73.7,90.4,60.2c2.3-13.5,11-20.8,24.5-20.8h23.9L131.5,81H107.5z M123.1,49.6h-6.1
		c-7.3,0-11.7,3.2-13,10.6c-1.4,7.3,1.4,10.6,8.7,10.6h6.7L123.1,49.6z"/>
	<path class="st0" d="M212.6,81l4.3-24.3c0.8-4.8-1.2-6.8-6-6.8h-6.8L198.6,81h-13.8l10-56.7h13.8L206,39.4h10.4
		c12.1,0,16.5,5.3,14.3,17.4L226.4,81H212.6z"/>
	<path class="st0" d="M25.5,46.7c-6.7,0-7.6,4.3-8.3,7c-0.8,3.4-1.1,4.8-1.1,4.8h26.1c6.7,0,7.6-4.3,8.3-7c0.8-3.4,1.1-4.8,1.1-4.8
		H25.5z"/>
</g>
</svg>
